<svg xmlns="http://www.w3.org/2000/svg" width="193" height="34" fill="none"><path fill="#062846" fill-rule="evenodd" d="M75.636 7.291h-5.88v16.08H65.8V7.291H60V4.059h15.636V7.29Zm19.537 14.627a4.78 4.78 0 0 1-1.75 1.324c-.676.3-1.413.437-2.152.4a4.488 4.488 0 0 1-3.5-1.326c-.805-.883-1.216-2.178-1.233-3.884V9.03h3.81v9.275c0 1.494.676 2.24 2.029 2.241 1.291 0 2.18-.451 2.663-1.354V9.028h3.82v14.341h-3.588l-.103-1.453.004.002Zm-10.376-9.307c-.453-.065-.91-.1-1.368-.105-1.444 0-2.39.49-2.835 1.471v9.394h-3.81V9.03h3.6l.104 1.702a3.547 3.547 0 0 1 1.308-1.444 3.517 3.517 0 0 1 1.869-.53c.402-.002.803.056 1.188.172l-.056 3.68Z" clip-rule="evenodd"/><path fill="#FF492C" fill-rule="evenodd" d="M124.249 20.544a2.493 2.493 0 0 0 1.712-.584 2.03 2.03 0 0 0 .684-1.548h3.573a4.928 4.928 0 0 1-.792 2.675 5.199 5.199 0 0 1-2.129 1.884 6.593 6.593 0 0 1-2.981.67 6.164 6.164 0 0 1-2.627-.444 6.202 6.202 0 0 1-2.201-1.512c-1.174-1.303-1.763-3.105-1.766-5.405v-.253c0-2.214.585-3.978 1.755-5.293a6.108 6.108 0 0 1 4.81-1.978 5.98 5.98 0 0 1 4.287 1.53 5.42 5.42 0 0 1 1.643 4.084h-3.573a2.632 2.632 0 0 0-.68-1.819 2.55 2.55 0 0 0-2.947-.398 2.57 2.57 0 0 0-.807.676c-.45.652-.675 1.707-.675 3.166v.395c0 1.48.221 2.539.671 3.186a2.32 2.32 0 0 0 2.043.968Zm11.877-9.957a4.735 4.735 0 0 1 3.806-1.83c3.096.001 4.664 1.81 4.707 5.425v9.19h-3.807v-9.1a2.653 2.653 0 0 0-.531-1.824 2.243 2.243 0 0 0-1.75-.593 2.577 2.577 0 0 0-2.425 1.303v10.214h-3.81V3h3.81v7.587Z" clip-rule="evenodd"/><path fill="#FF492C" d="M166.798 3h-3.824v20.372h3.824V3Z"/><path fill="#FF492C" fill-rule="evenodd" d="M175.045 20.711a3.311 3.311 0 0 0 1.557-.376 2.515 2.515 0 0 0 1.052-1.014v-2.467h-1.422c-1.907 0-2.922.662-3.046 1.987l-.013.226a1.55 1.55 0 0 0 .496 1.182c.382.325.873.49 1.373.462h.003Zm3.147 2.662a4.344 4.344 0 0 1-.383-1.281 4.603 4.603 0 0 1-3.599 1.555 5.046 5.046 0 0 1-3.474-1.222 3.94 3.94 0 0 1-1.377-3.083 4.088 4.088 0 0 1 .398-1.968 4.061 4.061 0 0 1 1.285-1.536c1.12-.815 2.738-1.227 4.855-1.236h1.755v-.815a2.342 2.342 0 0 0-.508-1.58 2.003 2.003 0 0 0-1.601-.593 2.292 2.292 0 0 0-1.508.458 1.543 1.543 0 0 0-.549 1.254h-3.809a3.837 3.837 0 0 1 .761-2.3 5.094 5.094 0 0 1 2.164-1.662 7.819 7.819 0 0 1 3.136-.602 6.199 6.199 0 0 1 4.185 1.333 4.685 4.685 0 0 1 1.552 3.749v6.221a6.888 6.888 0 0 0 .567 3.087v.227l-3.85-.006Zm14.234-10.765c-.453-.064-.91-.098-1.368-.104-1.444 0-2.389.49-2.835 1.471v9.394h-3.809V9.028h3.6l.103 1.702a3.554 3.554 0 0 1 1.308-1.444 3.52 3.52 0 0 1 1.869-.53c.402-.002.803.056 1.188.172l-.056 3.68Zm-80.488 5.697a2.056 2.056 0 0 0-.791-1.734 10.522 10.522 0 0 0-2.849-1.272 20.137 20.137 0 0 1-3.257-1.318c-2.178-1.185-3.267-2.783-3.266-4.793a4.686 4.686 0 0 1 .877-2.793 5.707 5.707 0 0 1 2.515-1.92 9.47 9.47 0 0 1 3.683-.688 8.52 8.52 0 0 1 3.663.751 5.834 5.834 0 0 1 2.501 2.114c.593.925.9 2.006.884 3.106h-3.95a2.618 2.618 0 0 0-.833-2.06 3.412 3.412 0 0 0-2.335-.733 3.638 3.638 0 0 0-2.254.615 1.953 1.953 0 0 0-.801 1.63 1.885 1.885 0 0 0 .938 1.58c.866.526 1.8.927 2.777 1.19 2.25.684 3.889 1.53 4.918 2.536a5.058 5.058 0 0 1 1.538 3.766 4.66 4.66 0 0 1-1.885 3.934c-1.255.95-2.946 1.426-5.071 1.426a9.763 9.763 0 0 1-4.036-.815 6.419 6.419 0 0 1-2.776-2.236 5.777 5.777 0 0 1-.954-3.29h3.977c0 2.127 1.266 3.19 3.797 3.19a3.674 3.674 0 0 0 2.201-.575 1.876 1.876 0 0 0 .789-1.611Z" clip-rule="evenodd"/><path fill="#062846" fill-rule="evenodd" d="M153.667 11.47c.93 0 1.839.278 2.612.798a4.725 4.725 0 0 1 1.731 2.123 4.76 4.76 0 0 1 .268 2.733 4.74 4.74 0 0 1-1.287 2.422 4.678 4.678 0 0 1-5.124 1.025 4.702 4.702 0 0 1-2.109-1.742 4.748 4.748 0 0 1 .584-5.973 4.681 4.681 0 0 1 3.325-1.386Zm0 12.138a7.33 7.33 0 0 0 4.09-1.249 7.4 7.4 0 0 0 2.711-3.324 7.451 7.451 0 0 0 .419-4.28 7.417 7.417 0 0 0-2.015-3.792 7.323 7.323 0 0 0-8.023-1.606 7.373 7.373 0 0 0-3.304 2.729 7.438 7.438 0 0 0-1.24 4.115c0 1.964.776 3.848 2.156 5.237a7.341 7.341 0 0 0 5.206 2.17Zm0-11.819a4.37 4.37 0 0 0-2.439.745 4.416 4.416 0 0 0-1.617 1.982 4.43 4.43 0 0 0 .952 4.813 4.364 4.364 0 0 0 4.783.958 4.393 4.393 0 0 0 1.97-1.627 4.43 4.43 0 0 0 .74-2.454 4.431 4.431 0 0 0-1.285-3.123 4.378 4.378 0 0 0-3.104-1.293Zm4.701 4.412c0-.936-.276-1.85-.792-2.628a4.71 4.71 0 0 0-2.11-1.742 4.677 4.677 0 0 0-5.124 1.025 4.748 4.748 0 0 0 .713 7.278 4.68 4.68 0 0 0 5.936-.588 4.743 4.743 0 0 0 1.377-3.345Z" clip-rule="evenodd"/><path fill="#062846" fill-rule="evenodd" d="m156.449 20.64.871-.696 1.049 1.326.868 1.08a.484.484 0 0 0 .679.076l.02-.015a.476.476 0 0 1 .537-.045.474.474 0 0 1 .144.123l4.243 5.391a.492.492 0 0 1-.078.685l-1.664 1.33a.485.485 0 0 1-.682-.079l-4.243-5.388a.489.489 0 0 1 .078-.685l.015-.012a.492.492 0 0 0 .076-.688l-.863-1.075-1.049-1.326-.001-.002Zm4.704 3.317-.262.21 2.231 2.832.262-.209-2.231-2.833Zm-11.009-9.484a7.183 7.183 0 0 0 1.234 3.374 7.14 7.14 0 0 0 2.708 2.347 4.394 4.394 0 0 1-3.348-1.9 4.457 4.457 0 0 1-.594-3.821Z" clip-rule="evenodd"/><path fill="#FF492C" fill-rule="evenodd" d="m22.876 0 11.437 5.412L45.75 10.82c2.651 4.08 1.279 7.102.27 10.173a1.77 1.77 0 0 1 .478 1.678 1.773 1.773 0 0 1-1.187 1.274c-.223 2.072.28 4.31 2.689 7.01-1.425 1.121-2.63 1.531-3.617 1.232-2.828-1.429-2.058-4.964-.945-8.801a1.772 1.772 0 0 1-.37-1.487 1.773 1.773 0 0 1 1.192-1.33c.977-3.481 1.593-6.85-.506-8.804l-9.441 4.464-11.438 5.411-9.31-4.404-1.266-.598-.861-.408L0 10.82l11.438-5.41L22.875 0Zm-1.397 10.822v.07-.07Z" clip-rule="evenodd"/><path fill="#062846" fill-rule="evenodd" d="m11.44 22.354.861.407 1.265.598 9.311 4.404 11.438-5.41 5.41-2.56.813-.384v-4.93l-6.223 2.943-11.438 5.41-9.31-4.404-1.266-.598-.862-.407-6.223-2.944v4.93l.813.386 5.41 2.558Z" clip-rule="evenodd"/><path fill="#062846" fill-rule="evenodd" d="m22.875 33.886 17.662-8.353v-4.93l-17.662 8.352-17.661-8.352v4.93l17.66 8.353Z" clip-rule="evenodd"/></svg>